<svg width="27" height="27" viewBox="0 0 27 27" fill="none" xmlns="http://www.w3.org/2000/svg">
<circle cx="13.5" cy="13.5" r="13.5" fill="#D9D9D9"/>
<path d="M8.485 19.18C7.705 19.18 7.025 19.045 6.445 18.775C5.875 18.495 5.435 18.1 5.125 17.59C4.815 17.08 4.66 16.475 4.66 15.775H6.715C6.715 16.125 6.78 16.44 6.91 16.72C7.05 16.99 7.25 17.2 7.51 17.35C7.77 17.49 8.075 17.56 8.425 17.56C8.765 17.56 9.055 17.485 9.295 17.335C9.545 17.185 9.74 16.97 9.88 16.69C10.02 16.4 10.09 16.045 10.09 15.625C10.09 15.235 10.02 14.91 9.88 14.65C9.75 14.38 9.56 14.18 9.31 14.05C9.07 13.91 8.785 13.84 8.455 13.84C8.195 13.84 7.965 13.885 7.765 13.975C7.575 14.055 7.41 14.155 7.27 14.275C7.13 14.395 7.01 14.525 6.91 14.665L5.035 14.425L5.455 8.71H11.635V10.555H7.195L7.03 12.88C7.14 12.8 7.285 12.715 7.465 12.625C7.645 12.535 7.865 12.455 8.125 12.385C8.395 12.305 8.705 12.265 9.055 12.265C9.655 12.265 10.19 12.39 10.66 12.64C11.14 12.89 11.52 13.265 11.8 13.765C12.08 14.255 12.22 14.88 12.22 15.64C12.22 16.37 12.065 17 11.755 17.53C11.455 18.06 11.025 18.47 10.465 18.76C9.915 19.04 9.255 19.18 8.485 19.18ZM17.3909 19.18C16.7709 19.18 16.2259 19.09 15.7559 18.91C15.2859 18.72 14.8909 18.42 14.5709 18.01C14.2609 17.59 14.0259 17.04 13.8659 16.36C13.7159 15.68 13.6409 14.845 13.6409 13.855C13.6409 12.855 13.7159 12.02 13.8659 11.35C14.0259 10.67 14.2609 10.12 14.5709 9.7C14.8909 9.28 15.2859 8.98 15.7559 8.8C16.2259 8.62 16.7709 8.53 17.3909 8.53C18.0209 8.53 18.5659 8.62 19.0259 8.8C19.4859 8.98 19.8709 9.28 20.1809 9.7C20.5009 10.12 20.7359 10.67 20.8859 11.35C21.0459 12.02 21.1259 12.855 21.1259 13.855C21.1259 14.845 21.0459 15.68 20.8859 16.36C20.7359 17.04 20.5009 17.59 20.1809 18.01C19.8709 18.42 19.4859 18.72 19.0259 18.91C18.5659 19.09 18.0209 19.18 17.3909 19.18ZM17.3909 17.56C17.8309 17.56 18.1659 17.445 18.3959 17.215C18.6259 16.975 18.7859 16.615 18.8759 16.135C18.9659 15.655 19.0109 15.055 19.0109 14.335V13.405C19.0109 12.675 18.9659 12.07 18.8759 11.59C18.7859 11.1 18.6259 10.735 18.3959 10.495C18.1659 10.255 17.8309 10.135 17.3909 10.135C16.9509 10.135 16.6109 10.255 16.3709 10.495C16.1409 10.735 15.9809 11.095 15.8909 11.575C15.8009 12.045 15.7559 12.645 15.7559 13.375V14.305C15.7559 15.035 15.8009 15.645 15.8909 16.135C15.9809 16.615 16.1409 16.975 16.3709 17.215C16.6109 17.445 16.9509 17.56 17.3909 17.56Z" fill="#246036"/>
</svg>
