<svg width="152" height="55" viewBox="0 0 152 55" fill="none" xmlns="http://www.w3.org/2000/svg">
<g filter="url(#filter0_i_273_1872)">
<path d="M0 31.8088C0 28.4516 0 26.773 0.638814 25.2718C1.27763 23.7707 2.48724 22.6068 4.90647 20.2791L21.3368 4.47032C23.6308 2.26317 24.7777 1.1596 26.2165 0.5798C27.6554 0 29.247 0 32.4304 0H136C143.542 0 147.314 0 149.657 2.34315C152 4.68629 152 8.45753 152 16V18.8127C152 21.8704 152 23.3993 151.462 24.7918C150.923 26.1842 149.894 27.3153 147.837 29.5775L129.479 49.7648C127.134 52.3434 125.961 53.6328 124.416 54.3164C122.87 55 121.127 55 117.642 55H16C8.45753 55 4.68629 55 2.34315 52.6569C0 50.3137 0 46.5425 0 39V31.8088Z" fill="#FFEB7F"/>
</g>
<path d="M1.5 31.8088C1.5 28.3256 1.52789 27.0133 2.01904 25.8592C2.51018 24.7051 3.43643 23.7752 5.94649 21.36L22.3769 5.55123C24.7564 3.26173 25.6708 2.41693 26.7772 1.97109C27.8836 1.52525 29.1283 1.5 32.4304 1.5H136C139.814 1.5 142.523 1.50319 144.578 1.77952C146.59 2.05005 147.75 2.55739 148.596 3.4038C149.443 4.25022 149.95 5.40952 150.22 7.4217C150.497 9.47703 150.5 12.1864 150.5 16V18.8127C150.5 21.984 150.477 23.1799 150.062 24.2508C149.648 25.3216 148.861 26.2221 146.727 28.5683L128.369 48.7556C125.936 51.4315 124.997 52.419 123.809 52.9446C122.621 53.4701 121.259 53.5 117.642 53.5H16C12.1864 53.5 9.47702 53.4968 7.4217 53.2205C5.40952 52.95 4.25023 52.4426 3.40381 51.5962C2.55739 50.7498 2.05005 49.5905 1.77952 47.5783C1.50319 45.523 1.5 42.8136 1.5 39V31.8088Z" stroke="#777777" stroke-width="3"/>
<defs>
<filter id="filter0_i_273_1872" x="0" y="0" width="152" height="55" filterUnits="userSpaceOnUse" color-interpolation-filters="sRGB">
<feFlood flood-opacity="0" result="BackgroundImageFix"/>
<feBlend mode="normal" in="SourceGraphic" in2="BackgroundImageFix" result="shape"/>
<feColorMatrix in="SourceAlpha" type="matrix" values="0 0 0 0 0 0 0 0 0 0 0 0 0 0 0 0 0 0 127 0" result="hardAlpha"/>
<feOffset dx="2" dy="-2"/>
<feComposite in2="hardAlpha" operator="arithmetic" k2="-1" k3="1"/>
<feColorMatrix type="matrix" values="0 0 0 0 0 0 0 0 0 0 0 0 0 0 0 0 0 0 0.1 0"/>
<feBlend mode="normal" in2="shape" result="effect1_innerShadow_273_1872"/>
</filter>
</defs>
</svg>
