<svg width="465" height="151" viewBox="0 0 465 151" fill="none" xmlns="http://www.w3.org/2000/svg">
<g filter="url(#filter0_di_273_474)">
<path d="M0.449708 21.1828C-0.855135 9.89972 7.96566 0 19.3239 0H441.676C453.034 0 461.855 9.89968 460.55 21.1827L447.945 130.183C446.836 139.768 438.72 147 429.071 147H31.9293C22.2804 147 14.1636 139.768 13.0551 130.183L0.449708 21.1828Z" fill="#294A65"/>
<path d="M1.93978 21.0105C0.737947 10.6182 8.86236 1.5 19.3239 1.5H441.676C452.138 1.5 460.262 10.6181 459.06 21.0104L446.455 130.01C445.434 138.839 437.958 145.5 429.071 145.5H31.9293C23.0422 145.5 15.5662 138.839 14.5452 130.01L1.93978 21.0105Z" stroke="#192D3E" stroke-width="3"/>
</g>
<defs>
<filter id="filter0_di_273_474" x="0.321289" y="0" width="464.357" height="151" filterUnits="userSpaceOnUse" color-interpolation-filters="sRGB">
<feFlood flood-opacity="0" result="BackgroundImageFix"/>
<feColorMatrix in="SourceAlpha" type="matrix" values="0 0 0 0 0 0 0 0 0 0 0 0 0 0 0 0 0 0 127 0" result="hardAlpha"/>
<feOffset dx="4" dy="4"/>
<feComposite in2="hardAlpha" operator="out"/>
<feColorMatrix type="matrix" values="0 0 0 0 0.0980392 0 0 0 0 0.176471 0 0 0 0 0.243137 0 0 0 1 0"/>
<feBlend mode="normal" in2="BackgroundImageFix" result="effect1_dropShadow_273_474"/>
<feBlend mode="normal" in="SourceGraphic" in2="effect1_dropShadow_273_474" result="shape"/>
<feColorMatrix in="SourceAlpha" type="matrix" values="0 0 0 0 0 0 0 0 0 0 0 0 0 0 0 0 0 0 127 0" result="hardAlpha"/>
<feOffset dx="8" dy="-4"/>
<feComposite in2="hardAlpha" operator="arithmetic" k2="-1" k3="1"/>
<feColorMatrix type="matrix" values="0 0 0 0 0 0 0 0 0 0 0 0 0 0 0 0 0 0 0.1 0"/>
<feBlend mode="normal" in2="shape" result="effect2_innerShadow_273_474"/>
</filter>
</defs>
</svg>
