<svg width="170" height="68" viewBox="0 0 170 68" fill="none" xmlns="http://www.w3.org/2000/svg">
<g filter="url(#filter0_i_273_1864)">
<path d="M17.7865 12.3767C18.8042 9.19405 21.6927 6.97917 25.0304 6.8221L158.8 0.527044C164.287 0.26885 168.396 5.48981 166.855 10.762L155.597 49.2918C154.672 52.4572 151.899 54.7307 148.614 55.0176L11.9783 66.9536C6.28502 67.451 1.92155 61.9908 3.66218 56.5474L17.7865 12.3767Z" fill="#2C506D"/>
</g>
<path d="M18.739 12.6812C19.6295 9.89645 22.1569 7.95843 25.0774 7.82099L158.847 1.52594C163.648 1.30002 167.243 5.86836 165.895 10.4816L154.637 49.0113C153.827 51.781 151.401 53.7703 148.527 54.0214L11.8912 65.9574C6.90965 66.3926 3.09162 61.6149 4.61467 56.8519L18.739 12.6812Z" stroke="#0C0A0F" stroke-width="2"/>
<path d="M31.6636 27.5623L29.0832 32.0614C28.2475 33.5186 27.8296 34.2472 27.8296 35.0465C27.8296 35.8457 28.2475 36.5743 29.0832 38.0315L31.6636 42.5306C32.5074 44.0018 32.9293 44.7374 33.6268 45.1415C34.3244 45.5455 35.1724 45.5455 36.8683 45.5455H43.2984C44.9943 45.5455 45.8423 45.5455 46.5399 45.1415C47.2375 44.7374 47.6593 44.0018 48.5031 42.5306L51.0835 38.0315C51.9192 36.5743 52.3371 35.8457 52.3371 35.0465C52.3371 34.2472 51.9192 33.5186 51.0835 32.0614L48.5031 27.5623C47.6593 26.0911 47.2375 25.3555 46.5399 24.9514C45.8423 24.5474 44.9943 24.5474 43.2984 24.5474H36.8683C35.1724 24.5474 34.3244 24.5474 33.6268 24.9514C32.9293 25.3555 32.5074 26.0911 31.6636 27.5623L31.6636 27.5623Z" fill="#F4D738"/>
<ellipse cx="40.0833" cy="35.0464" rx="4.01436" ry="3.70556" fill="#EFEEDC"/>
<path d="M64.32 41.14C63.2933 41.14 62.3733 40.9733 61.56 40.64C60.7467 40.3067 60.0933 39.8133 59.6 39.16C59.12 38.5067 58.8667 37.72 58.84 36.8H62.48C62.5333 37.32 62.7133 37.72 63.02 38C63.3267 38.2667 63.7267 38.4 64.22 38.4C64.7267 38.4 65.1267 38.2867 65.42 38.06C65.7133 37.82 65.86 37.4933 65.86 37.08C65.86 36.7333 65.74 36.4467 65.5 36.22C65.2733 35.9933 64.9867 35.8067 64.64 35.66C64.3067 35.5133 63.8267 35.3467 63.2 35.16C62.2933 34.88 61.5533 34.6 60.98 34.32C60.4067 34.04 59.9133 33.6267 59.5 33.08C59.0867 32.5333 58.88 31.82 58.88 30.94C58.88 29.6333 59.3533 28.6133 60.3 27.88C61.2467 27.1333 62.48 26.76 64 26.76C65.5467 26.76 66.7933 27.1333 67.74 27.88C68.6867 28.6133 69.1933 29.64 69.26 30.96H65.56C65.5333 30.5067 65.3667 30.1533 65.06 29.9C64.7533 29.6333 64.36 29.5 63.88 29.5C63.4667 29.5 63.1333 29.6133 62.88 29.84C62.6267 30.0533 62.5 30.3667 62.5 30.78C62.5 31.2333 62.7133 31.5867 63.14 31.84C63.5667 32.0933 64.2333 32.3667 65.14 32.66C66.0467 32.9667 66.78 33.26 67.34 33.54C67.9133 33.82 68.4067 34.2267 68.82 34.76C69.2333 35.2933 69.44 35.98 69.44 36.82C69.44 37.62 69.2333 38.3467 68.82 39C68.42 39.6533 67.8333 40.1733 67.06 40.56C66.2867 40.9467 65.3733 41.14 64.32 41.14ZM82.0647 35.24C82.0647 35.56 82.0447 35.8933 82.0047 36.24H74.2647C74.318 36.9333 74.538 37.4667 74.9247 37.84C75.3247 38.2 75.8114 38.38 76.3847 38.38C77.238 38.38 77.8314 38.02 78.1647 37.3H81.8047C81.618 38.0333 81.278 38.6933 80.7847 39.28C80.3047 39.8667 79.698 40.3267 78.9647 40.66C78.2314 40.9933 77.4114 41.16 76.5047 41.16C75.4114 41.16 74.438 40.9267 73.5847 40.46C72.7314 39.9933 72.0647 39.3267 71.5847 38.46C71.1047 37.5933 70.8647 36.58 70.8647 35.42C70.8647 34.26 71.098 33.2467 71.5647 32.38C72.0447 31.5133 72.7114 30.8467 73.5647 30.38C74.418 29.9133 75.398 29.68 76.5047 29.68C77.5847 29.68 78.5447 29.9067 79.3847 30.36C80.2247 30.8133 80.878 31.46 81.3447 32.3C81.8247 33.14 82.0647 34.12 82.0647 35.24ZM78.5647 34.34C78.5647 33.7533 78.3647 33.2867 77.9647 32.94C77.5647 32.5933 77.0647 32.42 76.4647 32.42C75.8914 32.42 75.4047 32.5867 75.0047 32.92C74.618 33.2533 74.378 33.7267 74.2847 34.34H78.5647ZM90.0889 38.1V41H88.3489C87.1089 41 86.1422 40.7 85.4489 40.1C84.7556 39.4867 84.4089 38.4933 84.4089 37.12V32.68H83.0489V29.84H84.4089V27.12H87.8289V29.84H90.0689V32.68H87.8289V37.16C87.8289 37.4933 87.9089 37.7333 88.0689 37.88C88.2289 38.0267 88.4956 38.1 88.8689 38.1H90.0889ZM98.2139 38.1V41H96.4739C95.2339 41 94.2672 40.7 93.5739 40.1C92.8806 39.4867 92.5339 38.4933 92.5339 37.12V32.68H91.1739V29.84H92.5339V27.12H95.9539V29.84H98.1939V32.68H95.9539V37.16C95.9539 37.4933 96.0339 37.7333 96.1939 37.88C96.3539 38.0267 96.6206 38.1 96.9939 38.1H98.2139ZM101.839 28.68C101.239 28.68 100.746 28.5067 100.359 28.16C99.9856 27.8 99.7989 27.36 99.7989 26.84C99.7989 26.3067 99.9856 25.8667 100.359 25.52C100.746 25.16 101.239 24.98 101.839 24.98C102.426 24.98 102.906 25.16 103.279 25.52C103.666 25.8667 103.859 26.3067 103.859 26.84C103.859 27.36 103.666 27.8 103.279 28.16C102.906 28.5067 102.426 28.68 101.839 28.68ZM103.539 29.84V41H100.119V29.84H103.539ZM112.817 29.72C114.124 29.72 115.164 30.1467 115.937 31C116.724 31.84 117.117 33 117.117 34.48V41H113.717V34.94C113.717 34.1933 113.524 33.6133 113.137 33.2C112.751 32.7867 112.231 32.58 111.577 32.58C110.924 32.58 110.404 32.7867 110.017 33.2C109.631 33.6133 109.437 34.1933 109.437 34.94V41H106.017V29.84H109.437V31.32C109.784 30.8267 110.251 30.44 110.837 30.16C111.424 29.8667 112.084 29.72 112.817 29.72ZM123.734 29.68C124.521 29.68 125.207 29.84 125.794 30.16C126.394 30.48 126.854 30.9 127.174 31.42V29.84H130.594V40.98C130.594 42.0067 130.387 42.9333 129.974 43.76C129.574 44.6 128.954 45.2667 128.114 45.76C127.287 46.2533 126.254 46.5 125.014 46.5C123.361 46.5 122.021 46.1067 120.994 45.32C119.967 44.5467 119.381 43.4933 119.234 42.16H122.614C122.721 42.5867 122.974 42.92 123.374 43.16C123.774 43.4133 124.267 43.54 124.854 43.54C125.561 43.54 126.121 43.3333 126.534 42.92C126.961 42.52 127.174 41.8733 127.174 40.98V39.4C126.841 39.92 126.381 40.3467 125.794 40.68C125.207 41 124.521 41.16 123.734 41.16C122.814 41.16 121.981 40.9267 121.234 40.46C120.487 39.98 119.894 39.3067 119.454 38.44C119.027 37.56 118.814 36.5467 118.814 35.4C118.814 34.2533 119.027 33.2467 119.454 32.38C119.894 31.5133 120.487 30.8467 121.234 30.38C121.981 29.9133 122.814 29.68 123.734 29.68ZM127.174 35.42C127.174 34.5667 126.934 33.8933 126.454 33.4C125.987 32.9067 125.414 32.66 124.734 32.66C124.054 32.66 123.474 32.9067 122.994 33.4C122.527 33.88 122.294 34.5467 122.294 35.4C122.294 36.2533 122.527 36.9333 122.994 37.44C123.474 37.9333 124.054 38.18 124.734 38.18C125.414 38.18 125.987 37.9333 126.454 37.44C126.934 36.9467 127.174 36.2733 127.174 35.42Z" fill="white"/>
<defs>
<filter id="filter0_i_273_1864" x="-0.72522" y="-3.48193" width="167.907" height="70.4673" filterUnits="userSpaceOnUse" color-interpolation-filters="sRGB">
<feFlood flood-opacity="0" result="BackgroundImageFix"/>
<feBlend mode="normal" in="SourceGraphic" in2="BackgroundImageFix" result="shape"/>
<feColorMatrix in="SourceAlpha" type="matrix" values="0 0 0 0 0 0 0 0 0 0 0 0 0 0 0 0 0 0 127 0" result="hardAlpha"/>
<feOffset dx="-7" dy="-7"/>
<feGaussianBlur stdDeviation="2"/>
<feComposite in2="hardAlpha" operator="arithmetic" k2="-1" k3="1"/>
<feColorMatrix type="matrix" values="0 0 0 0 0.0470588 0 0 0 0 0.0392157 0 0 0 0 0.0588235 0 0 0 0.1 0"/>
<feBlend mode="normal" in2="shape" result="effect1_innerShadow_273_1864"/>
</filter>
</defs>
</svg>
