<svg width="93" height="63" viewBox="0 0 93 63" fill="none" xmlns="http://www.w3.org/2000/svg">
    <g filter="url(#filter0_di_254_450)">
    <path d="M86 27.9153C86 14.1549 74.8451 3 61.0847 3H36C19.9837 3 7 15.9837 7 32V52H61.9153C75.2169 52 86 41.2169 86 27.9153Z" fill="#EFEEDC" shape-rendering="crispEdges"/>
    <path d="M7 53.5H5.5V52V32C5.5 15.1553 19.1553 1.5 36 1.5H61.0847C75.6735 1.5 87.5 13.3265 87.5 27.9153C87.5 42.0453 76.0453 53.5 61.9153 53.5H7Z" stroke="#F4D738" stroke-width="3" shape-rendering="crispEdges"/>
    <path d="M14.6037 32.636L15.3717 22.764L16.1397 22.06L24.2037 22.316L24.1397 23.82L16.8117 23.596L16.5717 26.732L23.4997 26.62L23.5317 28.14L16.4437 28.252L16.1717 31.884L24.3637 31.212L24.4917 32.716L15.4197 33.452L14.6037 32.636ZM30.042 29.26L26.09 33.02L25.05 31.948L28.826 28.332L26.01 26.188L26.938 24.988L29.93 27.276L32.97 24.38L34.01 25.484L31.146 28.204L34.986 31.132L34.09 32.332L30.042 29.26ZM39.5918 31.532L42.7277 32.428L42.3278 33.868L38.5677 32.812L38.0237 32.012L38.4237 27.708L35.2717 27.932L35.1437 26.412L38.5677 26.172L38.7277 24.492L40.2318 24.636L40.1037 26.076L43.7037 25.82L43.7998 27.308L39.9598 27.596L39.5918 31.532ZM44.9131 24.988L46.4171 24.94L46.4651 26.908L50.1131 25.18L50.7531 26.572L46.5131 28.556L46.6731 33.388L45.1531 33.42L44.9131 24.988ZM51.5255 32.54L50.9175 31.692L51.6855 25.996L52.3575 25.356L57.0455 24.972L57.7815 25.372L59.1415 28.06L58.6135 29.132L53.6375 30.172L53.3175 28.716L57.3335 27.852L56.6615 26.524L53.0775 26.796L52.5015 31.196L58.0055 32.22L57.7175 33.692L51.5255 32.54ZM59.785 32.78L60.425 26.108L61.369 25.452L64.857 26.396L68.233 25.452L69.193 26.156L69.529 32.812L68.025 32.892L67.721 27.18L65.529 27.772L65.561 32.828L64.073 32.86L64.025 27.756L61.849 27.148L61.289 32.908L59.785 32.78ZM71.4168 32.54L70.8088 31.692L71.5768 25.996L72.2488 25.356L76.9368 24.972L77.6728 25.372L79.0328 28.06L78.5048 29.132L73.5288 30.172L73.2088 28.716L77.2248 27.852L76.5528 26.524L72.9688 26.796L72.3928 31.196L77.8968 32.22L77.6088 33.692L71.4168 32.54Z" fill="#968008"/>
    </g>
    <defs>
    <filter id="filter0_di_254_450" x="0" y="-4" width="93" height="67" filterUnits="userSpaceOnUse" color-interpolation-filters="sRGB">
    <feFlood flood-opacity="0" result="BackgroundImageFix"/>
    <feColorMatrix in="SourceAlpha" type="matrix" values="0 0 0 0 0 0 0 0 0 0 0 0 0 0 0 0 0 0 127 0" result="hardAlpha"/>
    <feOffset dy="4"/>
    <feGaussianBlur stdDeviation="2"/>
    <feComposite in2="hardAlpha" operator="out"/>
    <feColorMatrix type="matrix" values="0 0 0 0 0 0 0 0 0 0 0 0 0 0 0 0 0 0 0.1 0"/>
    <feBlend mode="normal" in2="BackgroundImageFix" result="effect1_dropShadow_254_450"/>
    <feBlend mode="normal" in="SourceGraphic" in2="effect1_dropShadow_254_450" result="shape"/>
    <feColorMatrix in="SourceAlpha" type="matrix" values="0 0 0 0 0 0 0 0 0 0 0 0 0 0 0 0 0 0 127 0" result="hardAlpha"/>
    <feOffset dx="7" dy="-7"/>
    <feGaussianBlur stdDeviation="2"/>
    <feComposite in2="hardAlpha" operator="arithmetic" k2="-1" k3="1"/>
    <feColorMatrix type="matrix" values="0 0 0 0 0 0 0 0 0 0 0 0 0 0 0 0 0 0 0.1 0"/>
    <feBlend mode="normal" in2="shape" result="effect2_innerShadow_254_450"/>
    </filter>
    </defs>
</svg>
