<svg width="69" height="74" viewBox="0 0 69 74" fill="none" xmlns="http://www.w3.org/2000/svg">
<mask id="mask0_273_1718" style="mask-type:alpha" maskUnits="userSpaceOnUse" x="9" y="9" width="52" height="56">
<path d="M9.02124 17.458C9.02124 13.6868 9.02124 11.8012 10.1928 10.6296C11.3644 9.45801 13.25 9.45801 17.0212 9.45801H52.3914C56.1627 9.45801 58.0483 9.45801 59.2199 10.6296C60.3914 11.8012 60.3914 13.6868 60.3914 17.458V56.6356C60.3914 60.4068 60.3914 62.2924 59.2199 63.464C58.0483 64.6356 56.1627 64.6356 52.3914 64.6356H17.0212C13.25 64.6356 11.3644 64.6356 10.1928 63.464C9.02124 62.2924 9.02124 60.4068 9.02124 56.6356V17.458Z" fill="black"/>
</mask>
<g mask="url(#mask0_273_1718)">
<path d="M38.9578 47.602L27.4944 34.1697C26.1932 32.645 25.5426 31.8826 24.6756 31.8432C23.8085 31.8038 23.0914 32.504 21.6573 33.9044L9.62396 45.6546C9.3267 45.9448 9.17807 46.09 9.09965 46.2761C9.02124 46.4623 9.02124 46.6701 9.02124 47.0855V65.3403C9.02124 69.3222 9.02124 71.3132 10.2783 72.4975C11.5355 73.6819 13.5229 73.5633 17.4978 73.3261L52.868 71.2154H52.868C56.4322 71.0027 58.2143 70.8964 59.3029 69.741C60.3914 68.5855 60.3914 66.8002 60.3914 63.2296V47.8169C60.3914 47.0394 60.3914 46.6507 60.2526 46.2978C60.1137 45.9448 59.8488 45.6603 59.3191 45.0913L54.7574 40.1915C53.386 38.7185 52.7003 37.982 51.8297 37.982C50.9591 37.982 50.2735 38.7185 48.9021 40.1915L41.9429 47.6665C41.2297 48.4325 40.8731 48.8156 40.425 48.8059C39.9769 48.7962 39.6372 48.3981 38.9578 47.602Z" fill="white"/>
</g>
<ellipse cx="46.1219" cy="27.8506" rx="5.7078" ry="6.13084" fill="#F4D738"/>
</svg>
