<svg width="117" height="55" viewBox="0 0 117 55" fill="none" xmlns="http://www.w3.org/2000/svg">
<g filter="url(#filter0_i_273_1871)">
<path d="M0 30.6125C0 27.8334 0 26.4438 0.450973 25.1582C0.901947 23.8726 1.77 22.7875 3.5061 20.6174L15.1961 6.00488C17.5565 3.05439 18.7367 1.57915 20.3795 0.789574C22.0223 0 23.9115 0 27.69 0H101C108.542 0 112.314 0 114.657 2.34315C117 4.68629 117 8.45753 117 16V19.9564C117 22.4583 117 23.7093 116.63 24.8833C116.26 26.0574 115.542 27.0822 114.108 29.1318L100.777 48.1754C98.4363 51.5196 97.2658 53.1917 95.5292 54.0958C93.7926 55 91.7516 55 87.6695 55H16C8.45753 55 4.68629 55 2.34315 52.6569C0 50.3137 0 46.5425 0 39V30.6125Z" fill="#FFEB80"/>
</g>
<path d="M1.5 30.6125C1.5 27.7311 1.51953 26.6436 1.86642 25.6547L0.458367 25.1608L1.86642 25.6547C2.2133 24.6658 2.87741 23.8044 4.6774 21.5544L16.3674 6.94192C18.8178 3.8789 19.7667 2.74836 21.0293 2.14153C22.2919 1.5347 23.7674 1.5 27.69 1.5H101C104.814 1.5 107.523 1.50319 109.578 1.77952C111.59 2.05005 112.75 2.55739 113.596 3.40381C114.443 4.25023 114.95 5.40952 115.22 7.4217C115.497 9.47703 115.5 12.1864 115.5 16V19.9564C115.5 22.5496 115.484 23.5291 115.199 24.4324C114.915 25.3356 114.366 26.1473 112.879 28.2716L99.5484 47.3152C98.3625 49.0092 97.5291 50.1974 96.7811 51.0822C96.0527 51.9439 95.4723 52.4343 94.8365 52.7654C94.2007 53.0964 93.4661 53.2906 92.3425 53.3932C91.1887 53.4986 89.7374 53.5 87.6695 53.5H16C12.1864 53.5 9.47703 53.4968 7.4217 53.2205C5.40952 52.95 4.25023 52.4426 3.40381 51.5962C2.55739 50.7498 2.05005 49.5905 1.77952 47.5783C1.50319 45.523 1.5 42.8136 1.5 39V30.6125Z" stroke="#777777" stroke-width="3"/>
<defs>
<filter id="filter0_i_273_1871" x="0" y="0" width="117" height="55" filterUnits="userSpaceOnUse" color-interpolation-filters="sRGB">
<feFlood flood-opacity="0" result="BackgroundImageFix"/>
<feBlend mode="normal" in="SourceGraphic" in2="BackgroundImageFix" result="shape"/>
<feColorMatrix in="SourceAlpha" type="matrix" values="0 0 0 0 0 0 0 0 0 0 0 0 0 0 0 0 0 0 127 0" result="hardAlpha"/>
<feOffset dx="2" dy="-2"/>
<feComposite in2="hardAlpha" operator="arithmetic" k2="-1" k3="1"/>
<feColorMatrix type="matrix" values="0 0 0 0 0 0 0 0 0 0 0 0 0 0 0 0 0 0 0.1 0"/>
<feBlend mode="normal" in2="shape" result="effect1_innerShadow_273_1871"/>
</filter>
</defs>
</svg>
