<svg width="144" height="48" viewBox="0 0 144 48" fill="none" xmlns="http://www.w3.org/2000/svg">
<g filter="url(#filter0_d_1_2)">
<rect width="140.385" height="44" rx="18" fill="white"/>
</g>
<ellipse cx="20.1921" cy="22" rx="14.4231" ry="15" fill="#F4D738"/>
<path d="M45.8505 29V15.28H48.0105L54.2705 23.88C54.3505 23.96 54.4371 24.0733 54.5305 24.22C54.6371 24.3667 54.7371 24.5133 54.8305 24.66C54.9238 24.8067 54.9905 24.9267 55.0305 25.02H55.1305C55.1305 24.82 55.1305 24.6267 55.1305 24.44C55.1305 24.2533 55.1305 24.0667 55.1305 23.88V15.28H57.2905V29H55.2105L48.8705 20.3C48.7638 20.14 48.6305 19.94 48.4705 19.7C48.3105 19.4467 48.1905 19.2533 48.1105 19.12H48.0105C48.0105 19.3067 48.0105 19.5 48.0105 19.7C48.0105 19.8867 48.0105 20.0867 48.0105 20.3V29H45.8505ZM64.738 29.24C63.6446 29.24 62.718 29.0467 61.958 28.66C61.2113 28.26 60.6446 27.6533 60.258 26.84C59.8846 26.0267 59.698 24.9933 59.698 23.74C59.698 22.4733 59.8846 21.44 60.258 20.64C60.6446 19.8267 61.2113 19.2267 61.958 18.84C62.718 18.44 63.6446 18.24 64.738 18.24C65.858 18.24 66.7913 18.44 67.538 18.84C68.2846 19.2267 68.8446 19.8267 69.218 20.64C69.6046 21.44 69.798 22.4733 69.798 23.74C69.798 24.9933 69.6046 26.0267 69.218 26.84C68.8446 27.6533 68.2846 28.26 67.538 28.66C66.7913 29.0467 65.858 29.24 64.738 29.24ZM64.738 27.52C65.4046 27.52 65.9513 27.3933 66.378 27.14C66.8046 26.8733 67.118 26.4733 67.318 25.94C67.5313 25.4067 67.638 24.7333 67.638 23.92V23.56C67.638 22.7467 67.5313 22.0733 67.318 21.54C67.118 21.0067 66.8046 20.6133 66.378 20.36C65.9513 20.0933 65.4046 19.96 64.738 19.96C64.0846 19.96 63.5446 20.0933 63.118 20.36C62.6913 20.6133 62.3713 21.0067 62.158 21.54C61.958 22.0733 61.858 22.7467 61.858 23.56V23.92C61.858 24.7333 61.958 25.4067 62.158 25.94C62.3713 26.4733 62.6913 26.8733 63.118 27.14C63.5446 27.3933 64.0846 27.52 64.738 27.52ZM76.3981 29.24C75.3048 29.24 74.3781 29.0467 73.6181 28.66C72.8715 28.26 72.3048 27.6533 71.9181 26.84C71.5448 26.0267 71.3581 24.9933 71.3581 23.74C71.3581 22.4733 71.5448 21.44 71.9181 20.64C72.3048 19.8267 72.8715 19.2267 73.6181 18.84C74.3781 18.44 75.3048 18.24 76.3981 18.24C77.5181 18.24 78.4515 18.44 79.1981 18.84C79.9448 19.2267 80.5048 19.8267 80.8781 20.64C81.2648 21.44 81.4581 22.4733 81.4581 23.74C81.4581 24.9933 81.2648 26.0267 80.8781 26.84C80.5048 27.6533 79.9448 28.26 79.1981 28.66C78.4515 29.0467 77.5181 29.24 76.3981 29.24ZM76.3981 27.52C77.0648 27.52 77.6115 27.3933 78.0381 27.14C78.4648 26.8733 78.7781 26.4733 78.9781 25.94C79.1915 25.4067 79.2981 24.7333 79.2981 23.92V23.56C79.2981 22.7467 79.1915 22.0733 78.9781 21.54C78.7781 21.0067 78.4648 20.6133 78.0381 20.36C77.6115 20.0933 77.0648 19.96 76.3981 19.96C75.7448 19.96 75.2048 20.0933 74.7781 20.36C74.3515 20.6133 74.0315 21.0067 73.8181 21.54C73.6181 22.0733 73.5181 22.7467 73.5181 23.56V23.92C73.5181 24.7333 73.6181 25.4067 73.8181 25.94C74.0315 26.4733 74.3515 26.8733 74.7781 27.14C75.2048 27.3933 75.7448 27.52 76.3981 27.52ZM88.8583 29.24C88.1649 29.24 87.5383 29.1 86.9783 28.82C86.4183 28.54 85.9583 28.12 85.5983 27.56H85.4583L85.2783 29H83.5783V14.54H85.6583V19.76H85.7783C86.0049 19.4133 86.2716 19.1267 86.5783 18.9C86.8983 18.6733 87.2583 18.5067 87.6583 18.4C88.0583 18.2933 88.4916 18.24 88.9583 18.24C89.7583 18.24 90.4649 18.4333 91.0783 18.82C91.6916 19.2067 92.1649 19.8 92.4983 20.6C92.8449 21.4 93.0183 22.4333 93.0183 23.7C93.0183 24.9933 92.8516 26.0467 92.5183 26.86C92.1849 27.6733 91.7049 28.2733 91.0783 28.66C90.4649 29.0467 89.7249 29.24 88.8583 29.24ZM88.2783 27.44C88.8783 27.44 89.3649 27.32 89.7383 27.08C90.1249 26.84 90.4116 26.4667 90.5983 25.96C90.7849 25.44 90.8783 24.7667 90.8783 23.94V23.58C90.8783 22.7533 90.7849 22.08 90.5983 21.56C90.4249 21.04 90.1449 20.66 89.7583 20.42C89.3716 20.1667 88.8649 20.04 88.2383 20.04C87.8516 20.04 87.4983 20.1067 87.1783 20.24C86.8583 20.3733 86.5849 20.5867 86.3583 20.88C86.1316 21.16 85.9583 21.5267 85.8383 21.98C85.7183 22.4333 85.6583 22.98 85.6583 23.62V23.9C85.6583 24.66 85.7449 25.3067 85.9183 25.84C86.1049 26.36 86.3916 26.76 86.7783 27.04C87.1649 27.3067 87.6649 27.44 88.2783 27.44ZM100.44 29.24C99.747 29.24 99.1203 29.1 98.5603 28.82C98.0003 28.54 97.5403 28.12 97.1803 27.56H97.0403L96.8603 29H95.1603V14.54H97.2403V19.76H97.3603C97.587 19.4133 97.8536 19.1267 98.1603 18.9C98.4803 18.6733 98.8403 18.5067 99.2403 18.4C99.6403 18.2933 100.074 18.24 100.54 18.24C101.34 18.24 102.047 18.4333 102.66 18.82C103.274 19.2067 103.747 19.8 104.08 20.6C104.427 21.4 104.6 22.4333 104.6 23.7C104.6 24.9933 104.434 26.0467 104.1 26.86C103.767 27.6733 103.287 28.2733 102.66 28.66C102.047 29.0467 101.307 29.24 100.44 29.24ZM99.8603 27.44C100.46 27.44 100.947 27.32 101.32 27.08C101.707 26.84 101.994 26.4667 102.18 25.96C102.367 25.44 102.46 24.7667 102.46 23.94V23.58C102.46 22.7533 102.367 22.08 102.18 21.56C102.007 21.04 101.727 20.66 101.34 20.42C100.954 20.1667 100.447 20.04 99.8203 20.04C99.4336 20.04 99.0803 20.1067 98.7603 20.24C98.4403 20.3733 98.167 20.5867 97.9403 20.88C97.7136 21.16 97.5403 21.5267 97.4203 21.98C97.3003 22.4333 97.2403 22.98 97.2403 23.62V23.9C97.2403 24.66 97.327 25.3067 97.5003 25.84C97.687 26.36 97.9736 26.76 98.3603 27.04C98.747 27.3067 99.247 27.44 99.8603 27.44ZM106.742 16.66V14.54H108.822V16.66H106.742ZM106.742 29V18.48H108.822V29H106.742ZM115.868 29.24C114.788 29.24 113.881 29.0467 113.148 28.66C112.428 28.26 111.881 27.6533 111.508 26.84C111.135 26.0267 110.948 24.9933 110.948 23.74C110.948 22.4733 111.135 21.44 111.508 20.64C111.881 19.8267 112.435 19.2267 113.168 18.84C113.901 18.44 114.815 18.24 115.908 18.24C116.908 18.24 117.741 18.4333 118.408 18.82C119.088 19.1933 119.601 19.7667 119.948 20.54C120.295 21.3133 120.468 22.2867 120.468 23.46V24.26H113.088C113.115 25.0067 113.228 25.6333 113.428 26.14C113.628 26.6333 113.928 27 114.328 27.24C114.741 27.4667 115.261 27.58 115.888 27.58C116.275 27.58 116.621 27.5333 116.928 27.44C117.235 27.3333 117.495 27.1867 117.708 27C117.921 26.8 118.088 26.5667 118.208 26.3C118.328 26.02 118.388 25.7067 118.388 25.36H120.428C120.428 25.9867 120.321 26.54 120.108 27.02C119.895 27.5 119.581 27.9067 119.168 28.24C118.768 28.56 118.288 28.8067 117.728 28.98C117.168 29.1533 116.548 29.24 115.868 29.24ZM113.128 22.74H118.288C118.288 22.22 118.228 21.7867 118.108 21.44C118.001 21.08 117.841 20.7867 117.628 20.56C117.415 20.3333 117.161 20.1733 116.868 20.08C116.575 19.9733 116.241 19.92 115.868 19.92C115.308 19.92 114.828 20.02 114.428 20.22C114.041 20.42 113.741 20.7333 113.528 21.16C113.315 21.5733 113.181 22.1 113.128 22.74ZM126.462 29.24C125.729 29.24 125.082 29.16 124.522 29C123.962 28.84 123.496 28.62 123.122 28.34C122.749 28.06 122.462 27.7267 122.262 27.34C122.076 26.94 121.982 26.5 121.982 26.02C121.982 25.9533 121.982 25.8933 121.982 25.84C121.996 25.7867 122.002 25.74 122.002 25.7H124.062C124.062 25.74 124.062 25.78 124.062 25.82C124.062 25.8467 124.062 25.88 124.062 25.92C124.062 26.3333 124.176 26.6667 124.402 26.92C124.629 27.16 124.929 27.3333 125.302 27.44C125.689 27.5333 126.109 27.58 126.562 27.58C126.962 27.58 127.329 27.5333 127.662 27.44C128.009 27.3333 128.289 27.18 128.502 26.98C128.729 26.78 128.842 26.5267 128.842 26.22C128.842 25.82 128.702 25.5133 128.422 25.3C128.142 25.0867 127.776 24.92 127.322 24.8C126.869 24.6667 126.396 24.5267 125.902 24.38C125.462 24.26 125.022 24.1333 124.582 24C124.156 23.8533 123.769 23.6667 123.422 23.44C123.076 23.2133 122.796 22.9267 122.582 22.58C122.369 22.2333 122.262 21.8 122.262 21.28C122.262 20.7867 122.369 20.3533 122.582 19.98C122.796 19.6067 123.089 19.2933 123.462 19.04C123.849 18.7867 124.302 18.5933 124.822 18.46C125.356 18.3267 125.936 18.26 126.562 18.26C127.216 18.26 127.796 18.3333 128.302 18.48C128.809 18.6133 129.236 18.8067 129.582 19.06C129.942 19.3133 130.216 19.62 130.402 19.98C130.589 20.3267 130.682 20.7 130.682 21.1C130.682 21.18 130.676 21.2667 130.662 21.36C130.662 21.44 130.662 21.4933 130.662 21.52H128.622V21.34C128.622 21.0733 128.549 20.8333 128.402 20.62C128.256 20.4067 128.022 20.2333 127.702 20.1C127.396 19.9667 126.982 19.9 126.462 19.9C126.116 19.9 125.809 19.9333 125.542 20C125.276 20.0533 125.056 20.1333 124.882 20.24C124.709 20.3467 124.576 20.4733 124.482 20.62C124.402 20.7667 124.362 20.9333 124.362 21.12C124.362 21.4267 124.469 21.6667 124.682 21.84C124.909 22 125.202 22.14 125.562 22.26C125.922 22.3667 126.309 22.4867 126.722 22.62C127.202 22.7533 127.689 22.8933 128.182 23.04C128.676 23.1733 129.129 23.3467 129.542 23.56C129.969 23.7733 130.309 24.0667 130.562 24.44C130.829 24.8133 130.962 25.3133 130.962 25.94C130.962 26.5133 130.849 27.0133 130.622 27.44C130.396 27.8667 130.076 28.2133 129.662 28.48C129.262 28.7333 128.789 28.92 128.242 29.04C127.696 29.1733 127.102 29.24 126.462 29.24Z" fill="#42AE62"/>
<defs>
<filter id="filter0_d_1_2" x="0" y="0" width="143.385" height="48" filterUnits="userSpaceOnUse" color-interpolation-filters="sRGB">
<feFlood flood-opacity="0" result="BackgroundImageFix"/>
<feColorMatrix in="SourceAlpha" type="matrix" values="0 0 0 0 0 0 0 0 0 0 0 0 0 0 0 0 0 0 127 0" result="hardAlpha"/>
<feOffset dx="2" dy="3"/>
<feGaussianBlur stdDeviation="0.5"/>
<feComposite in2="hardAlpha" operator="out"/>
<feColorMatrix type="matrix" values="0 0 0 0 0 0 0 0 0 0 0 0 0 0 0 0 0 0 0.9 0"/>
<feBlend mode="normal" in2="BackgroundImageFix" result="effect1_dropShadow_1_2"/>
<feBlend mode="normal" in="SourceGraphic" in2="effect1_dropShadow_1_2" result="shape"/>
</filter>
</defs>
</svg>
